<?xml version="1.0" encoding="utf-8" ?>
<svg baseProfile="full" height="300mm" version="1.1" viewBox="0 0 1133.85826773 1133.85826773" width="300mm" xmlns="http://www.w3.org/2000/svg" xmlns:ev="http://www.w3.org/2001/xml-events" xmlns:xlink="http://www.w3.org/1999/xlink"><defs /><circle cx="566.929133865" cy="566.929133865" fill="none" r="529.133858274" stroke="black" stroke-width="1.88976377955" /><path d="M 910.87 566.93 Q 1037.14 692.92 864.79 738.90 Q 848.04 642.25 910.87 566.93 Z" fill="none" stroke="black" stroke-width="1.88976377955" /><path d="M 864.79 738.90 Q 911.15 911.15 738.90 864.79 Q 772.71 772.71 864.79 738.90 Z" fill="none" stroke="black" stroke-width="1.88976377955" /><path d="M 738.90 864.79 Q 692.92 1037.14 566.93 910.87 Q 642.25 848.04 738.90 864.79 Z" fill="none" stroke="black" stroke-width="1.88976377955" /><path d="M 566.93 910.87 Q 440.94 1037.14 394.96 864.79 Q 491.61 848.04 566.93 910.87 Z" fill="none" stroke="black" stroke-width="1.88976377955" /><path d="M 394.96 864.79 Q 222.71 911.15 269.07 738.90 Q 361.14 772.71 394.96 864.79 Z" fill="none" stroke="black" stroke-width="1.88976377955" /><path d="M 269.07 738.90 Q 96.71 692.92 222.99 566.93 Q 285.82 642.25 269.07 738.90 Z" fill="none" stroke="black" stroke-width="1.88976377955" /><path d="M 222.99 566.93 Q 96.71 440.94 269.07 394.96 Q 285.82 491.61 222.99 566.93 Z" fill="none" stroke="black" stroke-width="1.88976377955" /><path d="M 269.07 394.96 Q 222.71 222.71 394.96 269.07 Q 361.14 361.14 269.07 394.96 Z" fill="none" stroke="black" stroke-width="1.88976377955" /><path d="M 394.96 269.07 Q 440.94 96.71 566.93 222.99 Q 491.61 285.82 394.96 269.07 Z" fill="none" stroke="black" stroke-width="1.88976377955" /><path d="M 566.93 222.99 Q 692.92 96.71 738.90 269.07 Q 642.25 285.82 566.93 222.99 Z" fill="none" stroke="black" stroke-width="1.88976377955" /><path d="M 738.90 269.07 Q 911.15 222.71 864.79 394.96 Q 772.71 361.14 738.90 269.07 Z" fill="none" stroke="black" stroke-width="1.88976377955" /><path d="M 864.79 394.96 Q 1037.14 440.94 910.87 566.93 Q 848.04 491.61 864.79 394.96 Z" fill="none" stroke="black" stroke-width="1.88976377955" /><path d="M 566.93 302.36 L 633.07 452.37 L 796.05 434.65 L 699.21 566.93 L 796.05 699.21 L 633.07 681.49 L 566.93 831.50 L 500.79 681.49 L 337.81 699.21 L 434.65 566.93 L 337.81 434.65 L 500.79 452.37 Z" fill="none" stroke="black" stroke-width="1.88976377955" /><path d="M 910.87 566.93 L 762.97 672.49 L 826.20 566.93 L 762.97 461.37 Z" fill="none" stroke="black" stroke-width="1.88976377955" /><path d="M 738.90 864.79 L 573.53 789.49 L 696.57 791.47 L 756.37 683.93 Z" fill="none" stroke="black" stroke-width="1.88976377955" /><path d="M 394.96 864.79 L 377.49 683.93 L 437.29 791.47 L 560.33 789.49 Z" fill="none" stroke="black" stroke-width="1.88976377955" /><path d="M 222.99 566.93 L 370.89 461.37 L 307.65 566.93 L 370.89 672.49 Z" fill="none" stroke="black" stroke-width="1.88976377955" /><path d="M 394.96 269.07 L 560.33 344.37 L 437.29 342.39 L 377.49 449.93 Z" fill="none" stroke="black" stroke-width="1.88976377955" /><path d="M 738.90 269.07 L 756.37 449.93 L 696.57 342.39 L 573.53 344.37 Z" fill="none" stroke="black" stroke-width="1.88976377955" /><line fill="none" stroke="black" stroke-width="1.88976377955" x1="662.17322835432" x2="693.9212598507601" y1="566.929133865" y2="566.929133865" /><line fill="none" stroke="black" stroke-width="1.88976377955" x1="649.4129392531966" x2="676.9075410492621" y1="614.55118110966" y2="630.42519685788" /><line fill="none" stroke="black" stroke-width="1.88976377955" x1="614.5511811096601" x2="630.42519685788" y1="649.4129392531966" y2="676.9075410492621" /><line fill="none" stroke="black" stroke-width="1.88976377955" x1="566.929133865" x2="566.929133865" y1="662.17322835432" y2="693.9212598507601" /><line fill="none" stroke="black" stroke-width="1.88976377955" x1="519.3070866203401" x2="503.4330708721201" y1="649.4129392531966" y2="676.9075410492621" /><line fill="none" stroke="black" stroke-width="1.88976377955" x1="484.44532847680347" x2="456.95072668073794" y1="614.55118110966" y2="630.42519685788" /><line fill="none" stroke="black" stroke-width="1.88976377955" x1="471.68503937568005" x2="439.93700787924007" y1="566.929133865" y2="566.929133865" /><line fill="none" stroke="black" stroke-width="1.88976377955" x1="484.44532847680347" x2="456.95072668073794" y1="519.30708662034" y2="503.43307087212" /><line fill="none" stroke="black" stroke-width="1.88976377955" x1="519.30708662034" x2="503.43307087211997" y1="484.44532847680347" y2="456.95072668073794" /><line fill="none" stroke="black" stroke-width="1.88976377955" x1="566.929133865" x2="566.929133865" y1="471.68503937568005" y2="439.93700787924007" /><line fill="none" stroke="black" stroke-width="1.88976377955" x1="614.5511811096601" x2="630.42519685788" y1="484.44532847680347" y2="456.95072668073794" /><line fill="none" stroke="black" stroke-width="1.88976377955" x1="649.4129392531966" x2="676.9075410492621" y1="519.30708662034" y2="503.43307087211997" /><circle cx="566.929133865" cy="566.929133865" fill="none" r="116.40944882027999" stroke="black" stroke-width="1.88976377955" /><circle cx="566.929133865" cy="566.929133865" fill="none" r="84.66141732384" stroke="black" stroke-width="1.88976377955" /><circle cx="566.929133865" cy="566.929133865" fill="none" r="31.748031496439996" stroke="black" stroke-width="1.88976377955" /><circle cx="566.929133865" cy="566.929133865" fill="none" r="10.58267716548" stroke="black" stroke-width="1.88976377955" /><circle cx="566.929133865" cy="566.929133865" fill="none" r="264.566929137" stroke="black" stroke-width="1.88976377955" /><circle cx="566.929133865" cy="566.929133865" fill="none" r="338.64566929536" stroke="black" stroke-width="1.88976377955" /></svg>